<mxfile host="app.diagrams.net" modified="2021-09-17T00:32:31.534Z" agent="5.0 (Windows NT 10.0; Win64; x64) AppleWebKit/537.36 (KHTML, like Gecko) Chrome/93.0.4577.82 Safari/537.36" etag="4uwYByLJJffSlo-8SjBr" version="15.2.7" type="github">
  <diagram id="kgpKYQtTHZ0yAKxKKP6v" name="Page-1">
    <mxGraphModel dx="1888" dy="579" grid="1" gridSize="10" guides="1" tooltips="1" connect="1" arrows="1" fold="1" page="1" pageScale="1" pageWidth="850" pageHeight="1100" math="0" shadow="0">
      <root>
        <mxCell id="0" />
        <mxCell id="1" parent="0" />
        <mxCell id="3nuBFxr9cyL0pnOWT2aG-1" value="Â  :Add View Service" style="shape=umlLifeline;perimeter=lifelinePerimeter;container=1;collapsible=0;recursiveResize=0;rounded=0;shadow=0;strokeWidth=1;" parent="1" vertex="1">
          <mxGeometry x="215" y="130" width="100" height="490" as="geometry" />
        </mxCell>
        <mxCell id="3nuBFxr9cyL0pnOWT2aG-2" value="" style="points=[];perimeter=orthogonalPerimeter;rounded=0;shadow=0;strokeWidth=1;" parent="3nuBFxr9cyL0pnOWT2aG-1" vertex="1">
          <mxGeometry x="40" y="70" width="15" height="390" as="geometry" />
        </mxCell>
        <mxCell id="3nuBFxr9cyL0pnOWT2aG-3" value="Click Button &quot;Create&quot;" style="verticalAlign=bottom;startArrow=oval;endArrow=block;startSize=8;shadow=0;strokeWidth=1;" parent="3nuBFxr9cyL0pnOWT2aG-1" target="3nuBFxr9cyL0pnOWT2aG-2" edge="1">
          <mxGeometry relative="1" as="geometry">
            <mxPoint x="-105" y="70" as="sourcePoint" />
          </mxGeometry>
        </mxCell>
        <mxCell id="0GrsT5j0lHC2JYDFpa-r-6" value="" style="html=1;points=[];perimeter=orthogonalPerimeter;" parent="3nuBFxr9cyL0pnOWT2aG-1" vertex="1">
          <mxGeometry x="45" y="110" width="15" height="40" as="geometry" />
        </mxCell>
        <mxCell id="0GrsT5j0lHC2JYDFpa-r-7" value="1.1: check administration" style="edgeStyle=orthogonalEdgeStyle;html=1;align=left;spacingLeft=2;endArrow=block;rounded=0;entryX=1;entryY=0;exitX=1.013;exitY=0.094;exitDx=0;exitDy=0;exitPerimeter=0;" parent="3nuBFxr9cyL0pnOWT2aG-1" source="3nuBFxr9cyL0pnOWT2aG-2" target="0GrsT5j0lHC2JYDFpa-r-6" edge="1">
          <mxGeometry relative="1" as="geometry">
            <mxPoint x="65" y="60" as="sourcePoint" />
            <Array as="points">
              <mxPoint x="85" y="88" />
              <mxPoint x="85" y="110" />
            </Array>
          </mxGeometry>
        </mxCell>
        <mxCell id="0GrsT5j0lHC2JYDFpa-r-8" value="" style="html=1;points=[];perimeter=orthogonalPerimeter;" parent="3nuBFxr9cyL0pnOWT2aG-1" vertex="1">
          <mxGeometry x="45" y="170" width="15" height="40" as="geometry" />
        </mxCell>
        <mxCell id="0GrsT5j0lHC2JYDFpa-r-9" value="1.3: check validation" style="edgeStyle=orthogonalEdgeStyle;html=1;align=left;spacingLeft=2;endArrow=block;rounded=0;entryX=1;entryY=0;" parent="3nuBFxr9cyL0pnOWT2aG-1" target="0GrsT5j0lHC2JYDFpa-r-8" edge="1">
          <mxGeometry relative="1" as="geometry">
            <mxPoint x="60" y="155" as="sourcePoint" />
            <Array as="points">
              <mxPoint x="56" y="155" />
              <mxPoint x="80" y="155" />
              <mxPoint x="80" y="170" />
            </Array>
          </mxGeometry>
        </mxCell>
        <mxCell id="3nuBFxr9cyL0pnOWT2aG-5" value=":Salon service Controller" style="shape=umlLifeline;perimeter=lifelinePerimeter;container=1;collapsible=0;recursiveResize=0;rounded=0;shadow=0;strokeWidth=1;" parent="1" vertex="1">
          <mxGeometry x="410" y="130" width="140" height="470" as="geometry" />
        </mxCell>
        <mxCell id="3nuBFxr9cyL0pnOWT2aG-6" value="" style="points=[];perimeter=orthogonalPerimeter;rounded=0;shadow=0;strokeWidth=1;" parent="3nuBFxr9cyL0pnOWT2aG-5" vertex="1">
          <mxGeometry x="65" y="220" width="10" height="230" as="geometry" />
        </mxCell>
        <mxCell id="0GrsT5j0lHC2JYDFpa-r-11" value="&lt;b&gt;alt&lt;/b&gt; Add service" style="shape=umlFrame;whiteSpace=wrap;html=1;width=95;height=30;" parent="3nuBFxr9cyL0pnOWT2aG-5" vertex="1">
          <mxGeometry x="-285" y="230" width="350" height="240" as="geometry" />
        </mxCell>
        <mxCell id="3nuBFxr9cyL0pnOWT2aG-8" value="2: Request create service" style="verticalAlign=bottom;endArrow=block;entryX=0;entryY=0;shadow=0;strokeWidth=1;" parent="1" target="3nuBFxr9cyL0pnOWT2aG-6" edge="1">
          <mxGeometry relative="1" as="geometry">
            <mxPoint x="270" y="350" as="sourcePoint" />
            <Array as="points">
              <mxPoint x="320" y="350" />
            </Array>
          </mxGeometry>
        </mxCell>
        <mxCell id="0GrsT5j0lHC2JYDFpa-r-1" value="Admin" style="shape=umlActor;verticalLabelPosition=bottom;verticalAlign=top;html=1;outlineConnect=0;" parent="1" vertex="1">
          <mxGeometry x="60" y="130" width="30" height="60" as="geometry" />
        </mxCell>
        <mxCell id="0GrsT5j0lHC2JYDFpa-r-12" value=":Salon service Responsibility" style="shape=umlLifeline;perimeter=lifelinePerimeter;container=1;collapsible=0;recursiveResize=0;rounded=0;shadow=0;strokeWidth=1;" parent="1" vertex="1">
          <mxGeometry x="590" y="130" width="170" height="410" as="geometry" />
        </mxCell>
        <mxCell id="0GrsT5j0lHC2JYDFpa-r-13" value="" style="points=[];perimeter=orthogonalPerimeter;rounded=0;shadow=0;strokeWidth=1;" parent="0GrsT5j0lHC2JYDFpa-r-12" vertex="1">
          <mxGeometry x="80" y="230" width="10" height="160" as="geometry" />
        </mxCell>
        <mxCell id="0GrsT5j0lHC2JYDFpa-r-15" value="7:Return result" style="verticalAlign=bottom;endArrow=open;dashed=1;endSize=8;shadow=0;strokeWidth=1;" parent="1" edge="1">
          <mxGeometry relative="1" as="geometry">
            <mxPoint x="480" y="480" as="targetPoint" />
            <mxPoint x="670" y="480" as="sourcePoint" />
          </mxGeometry>
        </mxCell>
        <mxCell id="0GrsT5j0lHC2JYDFpa-r-16" value=":Database" style="shape=umlLifeline;perimeter=lifelinePerimeter;container=1;collapsible=0;recursiveResize=0;rounded=0;shadow=0;strokeWidth=1;" parent="1" vertex="1">
          <mxGeometry x="810" y="130" width="150" height="400" as="geometry" />
        </mxCell>
        <mxCell id="0GrsT5j0lHC2JYDFpa-r-17" value="" style="points=[];perimeter=orthogonalPerimeter;rounded=0;shadow=0;strokeWidth=1;" parent="0GrsT5j0lHC2JYDFpa-r-16" vertex="1">
          <mxGeometry x="70" y="235" width="10" height="150" as="geometry" />
        </mxCell>
        <mxCell id="0GrsT5j0lHC2JYDFpa-r-22" value="" style="html=1;points=[];perimeter=orthogonalPerimeter;" parent="0GrsT5j0lHC2JYDFpa-r-16" vertex="1">
          <mxGeometry x="75" y="290" width="10" height="40" as="geometry" />
        </mxCell>
        <mxCell id="0GrsT5j0lHC2JYDFpa-r-23" value="5:Check duplicate" style="edgeStyle=orthogonalEdgeStyle;html=1;align=left;spacingLeft=2;endArrow=block;rounded=0;entryX=1;entryY=0;" parent="0GrsT5j0lHC2JYDFpa-r-16" target="0GrsT5j0lHC2JYDFpa-r-22" edge="1">
          <mxGeometry relative="1" as="geometry">
            <mxPoint x="80" y="270" as="sourcePoint" />
            <Array as="points">
              <mxPoint x="110" y="270" />
            </Array>
          </mxGeometry>
        </mxCell>
        <mxCell id="0GrsT5j0lHC2JYDFpa-r-18" value="4:Excute query" style="verticalAlign=bottom;endArrow=block;entryX=0;entryY=0;shadow=0;strokeWidth=1;" parent="1" edge="1">
          <mxGeometry relative="1" as="geometry">
            <mxPoint x="685" y="390" as="sourcePoint" />
            <mxPoint x="880" y="390" as="targetPoint" />
            <Array as="points">
              <mxPoint x="735" y="390" />
            </Array>
          </mxGeometry>
        </mxCell>
        <mxCell id="0GrsT5j0lHC2JYDFpa-r-14" value="3:Create service" style="verticalAlign=bottom;endArrow=block;entryX=0;entryY=0;shadow=0;strokeWidth=1;" parent="1" edge="1">
          <mxGeometry relative="1" as="geometry">
            <mxPoint x="490" y="370" as="sourcePoint" />
            <mxPoint x="670" y="370" as="targetPoint" />
            <Array as="points">
              <mxPoint x="525" y="370" />
            </Array>
          </mxGeometry>
        </mxCell>
        <mxCell id="0GrsT5j0lHC2JYDFpa-r-24" value="6:Return result" style="verticalAlign=bottom;endArrow=open;dashed=1;endSize=8;shadow=0;strokeWidth=1;" parent="1" edge="1">
          <mxGeometry relative="1" as="geometry">
            <mxPoint x="680" y="470" as="targetPoint" />
            <mxPoint x="880" y="470" as="sourcePoint" />
          </mxGeometry>
        </mxCell>
        <mxCell id="0GrsT5j0lHC2JYDFpa-r-33" value="8[success]:Return success" style="verticalAlign=bottom;endArrow=open;dashed=1;endSize=8;exitX=0;exitY=0.95;shadow=0;strokeWidth=1;" parent="1" edge="1">
          <mxGeometry relative="1" as="geometry">
            <mxPoint x="270" y="420.49999999999955" as="targetPoint" />
            <mxPoint x="465" y="420.49999999999955" as="sourcePoint" />
            <Array as="points">
              <mxPoint x="370" y="420" />
            </Array>
          </mxGeometry>
        </mxCell>
        <mxCell id="0GrsT5j0lHC2JYDFpa-r-34" value="9[fail]:Return error" style="verticalAlign=bottom;endArrow=open;dashed=1;endSize=8;exitX=0;exitY=0.95;shadow=0;strokeWidth=1;" parent="1" edge="1">
          <mxGeometry relative="1" as="geometry">
            <mxPoint x="270" y="530.4999999999995" as="targetPoint" />
            <mxPoint x="465" y="530.4999999999995" as="sourcePoint" />
            <Array as="points">
              <mxPoint x="370" y="530" />
            </Array>
          </mxGeometry>
        </mxCell>
        <mxCell id="0GrsT5j0lHC2JYDFpa-r-35" value="" style="line;strokeWidth=1;fillColor=none;align=left;verticalAlign=middle;spacingTop=-1;spacingLeft=3;spacingRight=3;rotatable=0;labelPosition=right;points=[];portConstraint=eastwest;dashed=1;" parent="1" vertex="1">
          <mxGeometry x="120" y="470" width="350" height="8" as="geometry" />
        </mxCell>
        <mxCell id="0GrsT5j0lHC2JYDFpa-r-36" value="[Success]" style="text;html=1;strokeColor=none;fillColor=none;align=center;verticalAlign=middle;whiteSpace=wrap;rounded=0;dashed=1;" parent="1" vertex="1">
          <mxGeometry x="140" y="410" width="40" height="20" as="geometry" />
        </mxCell>
        <mxCell id="0GrsT5j0lHC2JYDFpa-r-37" value="[Fail]" style="text;html=1;strokeColor=none;fillColor=none;align=center;verticalAlign=middle;whiteSpace=wrap;rounded=0;dashed=1;" parent="1" vertex="1">
          <mxGeometry x="130" y="500" width="40" height="20" as="geometry" />
        </mxCell>
        <mxCell id="0GrsT5j0lHC2JYDFpa-r-39" value="1.2:Errors message if not administration" style="verticalAlign=bottom;endArrow=open;dashed=1;endSize=8;shadow=0;strokeWidth=1;" parent="1" edge="1">
          <mxGeometry relative="1" as="geometry">
            <mxPoint x="70" y="260" as="targetPoint" />
            <mxPoint x="260" y="260" as="sourcePoint" />
          </mxGeometry>
        </mxCell>
        <mxCell id="0GrsT5j0lHC2JYDFpa-r-40" value="1.4:Errors message if invalid" style="verticalAlign=bottom;endArrow=open;dashed=1;endSize=8;shadow=0;strokeWidth=1;exitX=-0.133;exitY=0.495;exitDx=0;exitDy=0;exitPerimeter=0;" parent="1" source="0GrsT5j0lHC2JYDFpa-r-8" edge="1">
          <mxGeometry relative="1" as="geometry">
            <mxPoint x="75" y="319.5" as="targetPoint" />
            <mxPoint x="225" y="319.5" as="sourcePoint" />
          </mxGeometry>
        </mxCell>
        <mxCell id="0GrsT5j0lHC2JYDFpa-r-41" value="" style="endArrow=none;dashed=1;html=1;dashPattern=1 3;strokeWidth=2;" parent="1" target="0GrsT5j0lHC2JYDFpa-r-1" edge="1">
          <mxGeometry width="50" height="50" relative="1" as="geometry">
            <mxPoint x="75" y="620" as="sourcePoint" />
            <mxPoint x="220" y="290" as="targetPoint" />
          </mxGeometry>
        </mxCell>
        <mxCell id="8wqBt8BUKFswIuifHX2i-1" value="&lt;b&gt;interaction&lt;/b&gt; Add service" style="shape=umlFrame;whiteSpace=wrap;html=1;width=140;height=40;" parent="1" vertex="1">
          <mxGeometry x="-10" y="40" width="1060" height="600" as="geometry" />
        </mxCell>
      </root>
    </mxGraphModel>
  </diagram>
</mxfile>
